# xmcd
#
# Track frame offsets: 
#        150
#        20660
#        39725
#        62330
#        84095
#        107395
#        129022
#        148042
#        170485
#        190555
#        213915
#        234880
#
# Disc length: 3418 seconds
#
# Revision: 5
# Processed by: cddbd v1.5.2PL0 Copyright (c) Steve Scherf et al.
# Submitted via: ExactAudioCopy v0.95a5
#
DISCID=8a0d580c
DTITLE=张信哲 - 从开始到现在-Disk2
DYEAR=2002
DGENRE=Pop
TTITLE0=从开始到现在
TTITLE1=My Memory
TTITLE2=过火
TTITLE3=太想爱你
TTITLE4=用情
TTITLE5=下雪边界
TTITLE6=多心
TTITLE7=爱情余味
TTITLE8=爱转动
TTITLE9=受罪
TTITLE10=心情卡片
TTITLE11=爱不留
EXTD=ID3G:  17
EXTT0=
EXTT1=
EXTT2=
EXTT3=
EXTT4=
EXTT5=
EXTT6=
EXTT7=
EXTT8=
EXTT9=
EXTT10=
EXTT11=
PLAYORDER=
